<svg width="676" height="601" viewBox="0 0 676 601" fill="none" xmlns="http://www.w3.org/2000/svg">
<g clip-path="url(#clip0_1935_318)">
<path d="M580.952 496.586C569.546 530.011 554.877 563.365 536.085 595.109C535.668 595.824 535.246 596.525 534.821 597.237L488.298 582.511C488.566 581.838 488.859 581.084 489.174 580.261C507.938 531.709 621.15 235.892 616.068 177.567C616.615 182.342 634.326 340.336 580.952 496.586Z" fill="#E6E6E6"/>
<path d="M545.061 597.95C544.428 598.597 543.78 599.238 543.126 599.866L508.226 588.819C508.698 588.248 509.247 587.575 509.879 586.814C520.215 574.185 550.945 536.372 580.952 496.586C613.199 453.831 644.618 408.804 649.021 390.302C648.137 394.51 620.598 522.584 545.061 597.95Z" fill="#E6E6E6"/>
<path d="M562.506 105.402C562.493 105.402 562.481 105.406 562.468 105.407V30.5554C562.468 22.4516 559.25 14.6797 553.523 8.94947C547.795 3.21922 540.027 0 531.928 0H297.707C289.607 0 281.839 3.21922 276.112 8.94947C270.384 14.6797 267.167 22.4516 267.167 30.5554V68.928C266.52 68.9418 265.905 69.2084 265.452 69.6706C264.999 70.1329 264.746 70.754 264.745 71.4011V90.4075C264.746 91.0546 264.999 91.6757 265.452 92.1379C265.905 92.6001 266.52 92.8665 267.167 92.8802V112.791H267.043C266.717 112.791 266.395 112.855 266.095 112.98C265.794 113.104 265.521 113.287 265.291 113.517C265.061 113.747 264.879 114.02 264.754 114.321C264.63 114.622 264.565 114.944 264.565 115.27V152.023C264.565 152.349 264.63 152.671 264.754 152.972C264.879 153.273 265.061 153.546 265.291 153.776C265.521 154.006 265.794 154.189 266.095 154.313C266.395 154.438 266.717 154.502 267.043 154.502H267.167V169.099H267.128C266.803 169.099 266.481 169.163 266.18 169.288C265.88 169.412 265.607 169.595 265.377 169.825C265.147 170.055 264.964 170.328 264.84 170.629C264.715 170.93 264.651 171.252 264.651 171.578V208.691C264.651 209.016 264.715 209.339 264.84 209.639C264.964 209.94 265.147 210.213 265.377 210.443C265.607 210.674 265.88 210.856 266.18 210.981C266.481 211.105 266.803 211.169 267.128 211.169H267.167V569.912C267.167 578.016 270.384 585.788 276.112 591.518C281.839 597.248 289.607 600.467 297.707 600.467H531.928C540.027 600.467 547.795 597.248 553.523 591.518C559.25 585.788 562.468 578.016 562.468 569.912V178.187C562.481 178.187 562.493 178.191 562.506 178.191C563.085 178.191 563.659 178.077 564.194 177.855C564.729 177.633 565.216 177.308 565.625 176.898C566.035 176.489 566.36 176.002 566.581 175.467C566.803 174.931 566.917 174.357 566.917 173.778V109.816C566.917 108.645 566.453 107.523 565.625 106.695C564.798 105.867 563.676 105.402 562.506 105.402Z" fill="#3F3D56"/>
<path d="M544.233 39.1083V561.351C544.23 567.573 541.758 573.539 537.36 577.938C532.962 582.337 526.997 584.809 520.778 584.809H308.856C302.637 584.809 296.673 582.337 292.275 577.938C287.876 573.539 285.404 567.573 285.402 561.351V39.1083C285.402 32.8845 287.873 26.9157 292.271 22.5148C296.67 18.114 302.636 15.6416 308.856 15.6416H340.569V19.7596C340.571 24.8837 342.606 29.7972 346.228 33.4205C349.849 37.0438 354.76 39.0803 359.882 39.0826H467.699C472.814 39.0712 477.715 37.0304 481.328 33.4079C484.941 29.7854 486.97 24.877 486.97 19.7596V15.6844H520.778C526.991 15.6844 532.951 18.1509 537.348 22.5425C541.745 26.9341 544.221 32.8919 544.233 39.1083Z" fill="white"/>
<path d="M200.585 293.039C199.331 292.554 197.987 292.349 196.646 292.44C195.305 292.53 194.001 292.914 192.824 293.564C191.647 294.213 190.628 295.113 189.836 296.2C189.045 297.286 188.501 298.533 188.243 299.853L112.724 340.937L126.002 355.889L196.135 310.857C198.38 311.143 200.651 310.595 202.519 309.318C204.387 308.04 205.721 306.122 206.27 303.925C206.818 301.729 206.542 299.408 205.495 297.402C204.447 295.395 202.7 293.843 200.585 293.039Z" fill="#FFB8B8"/>
<path d="M181.325 588.636L190.735 582.547L171.736 543.333L157.847 552.321L181.325 588.636Z" fill="#FFB8B8"/>
<path d="M214.535 579.544L184.96 598.684L177.569 587.252L196.144 575.23C199.062 573.342 202.609 572.691 206.006 573.42C209.403 574.149 212.372 576.198 214.259 579.117L214.535 579.544Z" fill="#2F2E41"/>
<path d="M75.7385 590.053H86.9456L92.2791 546.803H75.7385V590.053Z" fill="#FFB8B8"/>
<path d="M108.56 600.465H73.3371V586.849H95.46C97.1803 586.849 98.8837 587.188 100.473 587.847C102.062 588.505 103.507 589.471 104.723 590.688C105.939 591.905 106.904 593.35 107.563 594.94C108.221 596.53 108.56 598.235 108.56 599.956V600.465Z" fill="#2F2E41"/>
<path d="M332.866 84.7506H309.762C309.195 84.7506 308.651 84.5251 308.249 84.1237C307.848 83.7224 307.623 83.178 307.623 82.6103C307.623 82.0427 307.848 81.4982 308.249 81.0969C308.651 80.6955 309.195 80.47 309.762 80.47H332.866C333.433 80.47 333.977 80.6955 334.378 81.0969C334.78 81.4982 335.005 82.0427 335.005 82.6103C335.005 83.178 334.78 83.7224 334.378 84.1237C333.977 84.5251 333.433 84.7506 332.866 84.7506Z" fill="#3F3D56"/>
<path d="M332.866 90.7436H309.762C309.195 90.7436 308.651 90.5181 308.249 90.1167C307.848 89.7153 307.623 89.1709 307.623 88.6032C307.623 88.0356 307.848 87.4912 308.249 87.0898C308.651 86.6884 309.195 86.4629 309.762 86.4629H332.866C333.433 86.4629 333.977 86.6884 334.378 87.0898C334.78 87.4912 335.005 88.0356 335.005 88.6032C335.005 89.1709 334.78 89.7153 334.378 90.1167C333.977 90.5181 333.433 90.7436 332.866 90.7436Z" fill="#3F3D56"/>
<path d="M332.866 96.7365H309.762C309.195 96.7365 308.651 96.511 308.249 96.1096C307.848 95.7082 307.623 95.1638 307.623 94.5961C307.623 94.0285 307.848 93.4841 308.249 93.0827C308.651 92.6813 309.195 92.4558 309.762 92.4558H332.866C333.433 92.4558 333.977 92.6813 334.378 93.0827C334.78 93.4841 335.005 94.0285 335.005 94.5961C335.005 95.1638 334.78 95.7082 334.378 96.1096C333.977 96.511 333.433 96.7365 332.866 96.7365Z" fill="#3F3D56"/>
<path d="M511.956 90.7864H511.177L510.878 90.5382C511.861 89.3651 512.401 87.8829 512.401 86.3517C512.394 85.0919 512.014 83.8624 511.309 82.8187C510.604 81.7751 509.605 80.964 508.439 80.4882C507.273 80.0123 505.993 79.8931 504.759 80.1455C503.525 80.3979 502.394 81.0107 501.509 81.9063C500.623 82.8018 500.023 83.94 499.784 85.1769C499.545 86.4138 499.678 87.6938 500.166 88.8551C500.654 90.0164 501.475 91.0068 502.526 91.7011C503.577 92.3953 504.81 92.7623 506.069 92.7556C507.595 92.7447 509.07 92.2063 510.244 91.2316L510.535 91.4799V92.2676L515.447 97.1903L516.919 95.7178L511.956 90.7864ZM506.069 90.7864C505.192 90.7898 504.334 90.5331 503.603 90.0486C502.872 89.5641 502.302 88.8737 501.963 88.0646C501.624 87.2556 501.533 86.3643 501.701 85.5033C501.869 84.6424 502.288 83.8506 502.905 83.228C503.523 82.6054 504.311 82.18 505.17 82.0055C506.029 81.8311 506.921 81.9154 507.732 82.248C508.543 82.5805 509.238 83.1462 509.727 83.8736C510.217 84.601 510.481 85.4574 510.484 86.3345L510.484 86.3517C510.487 86.9307 510.377 87.5047 510.158 88.0409C509.94 88.5771 509.618 89.065 509.211 89.4768C508.805 89.8886 508.321 90.2163 507.787 90.4409C507.254 90.6656 506.682 90.783 506.103 90.7864C506.092 90.7864 506.08 90.7865 506.069 90.7864Z" fill="#3F3D56"/>
<path d="M379.934 163.515H338.428C335.931 163.515 333.537 162.523 331.772 160.757C330.007 158.991 329.015 156.595 329.015 154.098C329.015 151.6 330.007 149.205 331.772 147.438C333.537 145.672 335.931 144.68 338.428 144.68H379.934C382.43 144.68 384.824 145.672 386.589 147.438C388.355 149.205 389.346 151.6 389.346 154.098C389.346 156.595 388.355 158.991 386.589 160.757C384.824 162.523 382.43 163.515 379.934 163.515Z" fill="white"/>
<path d="M507 184.062H334.149C332.788 184.062 331.482 183.521 330.519 182.558C329.556 181.594 329.015 180.288 329.015 178.925C329.015 177.563 329.556 176.256 330.519 175.293C331.482 174.33 332.788 173.789 334.149 173.789H507C508.362 173.789 509.668 174.33 510.63 175.293C511.593 176.256 512.134 177.563 512.134 178.925C512.134 180.288 511.593 181.594 510.63 182.558C509.668 183.521 508.362 184.062 507 184.062Z" fill="#E6E6E6"/>
<path d="M397.642 204.61H334.149C332.788 204.61 331.482 204.068 330.519 203.105C329.556 202.142 329.015 200.835 329.015 199.473C329.015 198.11 329.556 196.804 330.519 195.84C331.482 194.877 332.788 194.336 334.149 194.336H397.642C399.004 194.336 400.31 194.877 401.273 195.84C402.235 196.804 402.776 198.11 402.776 199.473C402.776 200.835 402.235 202.142 401.273 203.105C400.31 204.068 399.004 204.61 397.642 204.61Z" fill="#E6E6E6"/>
<path d="M379.934 391.247H338.428C335.931 391.247 333.537 390.255 331.772 388.489C330.007 386.723 329.015 384.327 329.015 381.83C329.015 379.332 330.007 376.937 331.772 375.17C333.537 373.404 335.931 372.412 338.428 372.412H379.934C382.43 372.412 384.824 373.404 386.589 375.17C388.355 376.937 389.346 379.332 389.346 381.83C389.346 384.327 388.355 386.723 386.589 388.489C384.824 390.255 382.43 391.247 379.934 391.247Z" fill="white"/>
<path d="M507 411.794H334.149C332.788 411.794 331.482 411.253 330.519 410.29C329.556 409.326 329.015 408.02 329.015 406.657C329.015 405.295 329.556 403.988 330.519 403.025C331.482 402.062 332.788 401.521 334.149 401.521H507C508.362 401.521 509.668 402.062 510.63 403.025C511.593 403.988 512.134 405.295 512.134 406.657C512.134 408.02 511.593 409.326 510.63 410.29C509.668 411.253 508.362 411.794 507 411.794Z" fill="#E6E6E6"/>
<path d="M397.642 432.341H334.149C332.788 432.341 331.482 431.8 330.519 430.837C329.556 429.874 329.015 428.567 329.015 427.205C329.015 425.842 329.556 424.536 330.519 423.572C331.482 422.609 332.788 422.068 334.149 422.068H397.642C399.004 422.068 400.31 422.609 401.273 423.572C402.235 424.536 402.776 425.842 402.776 427.205C402.776 428.567 402.235 429.874 401.273 430.837C400.31 431.8 399.004 432.341 397.642 432.341Z" fill="#E6E6E6"/>
<path d="M379.934 496.552H338.428C335.931 496.552 333.537 495.559 331.772 493.793C330.007 492.027 329.015 489.632 329.015 487.134C329.015 484.636 330.007 482.241 331.772 480.475C333.537 478.709 335.931 477.717 338.428 477.717H379.934C382.43 477.717 384.824 478.709 386.589 480.475C388.355 482.241 389.346 484.636 389.346 487.134C389.346 489.632 388.355 492.027 386.589 493.793C384.824 495.559 382.43 496.552 379.934 496.552Z" fill="white"/>
<path d="M507 517.099H334.149C332.788 517.099 331.482 516.558 330.519 515.594C329.556 514.631 329.015 513.324 329.015 511.962C329.015 510.6 329.556 509.293 330.519 508.33C331.482 507.366 332.788 506.825 334.149 506.825H507C508.362 506.825 509.668 507.366 510.63 508.33C511.593 509.293 512.134 510.6 512.134 511.962C512.134 513.324 511.593 514.631 510.63 515.594C509.668 516.558 508.362 517.099 507 517.099Z" fill="#E6E6E6"/>
<path d="M397.642 537.646H334.149C332.788 537.646 331.482 537.105 330.519 536.141C329.556 535.178 329.015 533.871 329.015 532.509C329.015 531.147 329.556 529.84 330.519 528.877C331.482 527.914 332.788 527.372 334.149 527.372H397.642C399.004 527.372 400.31 527.914 401.273 528.877C402.235 529.84 402.776 531.147 402.776 532.509C402.776 533.871 402.235 535.178 401.273 536.141C400.31 537.105 399.004 537.646 397.642 537.646Z" fill="#E6E6E6"/>
<path d="M531.387 337.738H201.089C199.16 337.736 197.312 336.969 195.948 335.605C194.584 334.24 193.817 332.391 193.815 330.461V240.567C193.817 238.638 194.584 236.788 195.948 235.424C197.311 234.06 199.16 233.292 201.089 233.29H531.387C533.316 233.292 535.164 234.06 536.528 235.424C537.891 236.788 538.659 238.638 538.661 240.567V330.461C538.658 332.391 537.891 334.24 536.528 335.605C535.164 336.969 533.316 337.736 531.387 337.738Z" fill="white"/>
<path d="M82.345 444.687C85.5025 466.852 68.7822 565.051 70.6391 565.042L94.6499 564.914C95.5056 563.27 106.527 510.284 109.984 501.782C114.81 489.985 119.679 478.042 121.579 465.439C123.367 453.608 122.486 441.553 121.322 429.644C121.376 429.29 121.345 428.928 121.232 428.588C121.119 428.248 120.926 427.94 120.67 427.689C120.415 427.438 120.103 427.252 119.761 427.145C119.419 427.039 119.056 427.015 118.704 427.076L86.4866 425.415C79.8464 425.073 78.2719 423.617 79.2816 430.141C79.9833 435.013 81.6433 439.755 82.345 444.687Z" fill="#2F2E41"/>
<path d="M88.6772 390.793C82.1311 400.211 75.2684 411.049 77.4419 422.325C79.0934 430.886 85.6138 437.521 91.7662 443.728C116.359 468.436 164.851 577.456 164.851 577.456C188.253 562.474 164.294 577.884 188.041 562.046C185.936 561.883 138.111 389.877 134.149 389.646C118.122 388.584 104.294 387.018 88.6772 390.793Z" fill="#2F2E41"/>
<path d="M114.569 301.157C111.244 298.19 87.8781 289.041 87.8781 289.041C87.4485 288.984 87.0125 288.997 86.5871 289.08C85.2573 289.416 84.6506 291.069 84.9346 292.406C85.2187 293.743 82.8884 315.714 82.2881 325.705C81.236 343.142 91.4993 382.641 91.409 383.848C91.0573 388.155 89.1722 392.193 86.0966 395.228C86.8959 396.22 137.665 398.211 141.118 399.387C141.816 398.502 137.187 335.851 136.974 332.311C136.619 326.938 118.959 305.226 114.569 301.157Z" fill="#E6E6E6"/>
<path d="M78.3585 437.1C79.5616 436.501 80.6188 435.645 81.4557 434.593C82.2925 433.541 82.8887 432.318 83.2021 431.011C83.5155 429.703 83.5385 428.343 83.2696 427.026C83.0007 425.708 82.4464 424.466 81.6457 423.386L103.066 304.777L83.0772 304.514L68.2018 421.803C66.4778 423.269 65.3512 425.317 65.0355 427.558C64.7199 429.8 65.237 432.079 66.4889 433.965C67.7409 435.851 69.6406 437.211 71.8283 437.789C74.0159 438.367 76.3394 438.122 78.3585 437.1Z" fill="#FFB8B8"/>
<path d="M78.1863 313.578C77.3527 313.639 76.5224 313.422 75.8246 312.962C74.6352 311.943 84.3388 296.353 86.2556 296.122C92.4936 295.403 98.9113 295.163 104.961 296.849C111.011 298.536 116.701 302.372 119.405 308.048C120.535 310.411 112.346 322.302 108.623 320.556C104.165 318.467 84.0564 313.724 78.1863 313.578Z" fill="#E6E6E6"/>
<path d="M100.204 287.763C112.604 287.763 122.656 277.706 122.656 265.299C122.656 252.893 112.604 242.835 100.204 242.835C87.8036 242.835 77.7513 252.893 77.7513 265.299C77.7513 277.706 87.8036 287.763 100.204 287.763Z" fill="#FFB8B8"/>
<path d="M78.1506 302.441C81.2707 302.768 84.4228 302.307 87.3186 301.099C90.2144 299.892 92.7614 297.978 94.7266 295.531C96.6918 293.085 98.0124 290.184 98.5676 287.095C99.1229 284.006 98.895 280.827 97.9049 277.848C97.0114 275.161 95.5178 272.697 94.6996 269.986C93.8813 267.274 93.859 264.068 95.6739 261.894C99.2247 257.641 106.069 260.316 111.543 259.47C117.376 258.569 121.851 252.97 122.318 247.084C122.784 241.197 119.718 235.372 115.153 231.629C110.587 227.886 104.7 226.044 98.8259 225.466C91.2824 224.725 83.6751 225.939 76.7366 228.991C69.7981 232.044 63.762 236.833 59.2096 242.896C54.6571 248.96 51.7416 256.094 50.7439 263.612C49.7461 271.129 50.6997 278.777 53.5128 285.819C55.9668 291.963 59.9752 297.684 65.6687 301.049C71.3621 304.413 78.8817 305.06 84.5562 301.663" fill="#2F2E41"/>
<path d="M318.556 274.385H261.178C257.534 274.385 254.57 270.16 254.57 264.967C254.57 259.774 257.534 255.55 261.178 255.55H318.556C322.2 255.55 325.165 259.774 325.165 264.967C325.165 270.16 322.2 274.385 318.556 274.385Z" fill="white"/>
<path d="M472.772 294.932H259.704C258.342 294.932 257.036 294.391 256.073 293.427C255.111 292.464 254.57 291.157 254.57 289.795C254.57 288.433 255.111 287.126 256.073 286.163C257.036 285.199 258.342 284.658 259.704 284.658H472.772C474.134 284.658 475.44 285.199 476.403 286.163C477.365 287.126 477.906 288.433 477.906 289.795C477.906 291.157 477.365 292.464 476.403 293.427C475.44 294.391 474.134 294.932 472.772 294.932Z" fill="#E6E6E6"/>
<path d="M363.414 315.479H259.704C258.342 315.479 257.036 314.938 256.073 313.974C255.111 313.011 254.57 311.704 254.57 310.342C254.57 308.98 255.111 307.673 256.073 306.71C257.036 305.747 258.342 305.205 259.704 305.205H363.414C364.776 305.205 366.082 305.747 367.045 306.71C368.008 307.673 368.549 308.98 368.549 310.342C368.549 311.704 368.008 313.011 367.045 313.974C366.082 314.938 364.776 315.479 363.414 315.479Z" fill="#E6E6E6"/>
</g>
<defs>
<clipPath id="clip0_1935_318">
<rect width="676" height="601" fill="white"/>
</clipPath>
</defs>
</svg>
