<svg width="32" height="33" viewBox="0 0 32 33" fill="none" xmlns="http://www.w3.org/2000/svg">
<path d="M12.1667 28.3333L0.933317 17.1333C0.799984 17 0.705761 16.8555 0.65065 16.7C0.59465 16.5444 0.56665 16.3778 0.56665 16.2C0.56665 16.0222 0.59465 15.8555 0.65065 15.7C0.705761 15.5444 0.799984 15.4 0.933317 15.2667L12.1667 4.03332C12.4778 3.72221 12.8667 3.56665 13.3333 3.56665C13.8 3.56665 14.2 3.73332 14.5333 4.06665C14.8666 4.39998 15.0333 4.78887 15.0333 5.23332C15.0333 5.67776 14.8666 6.06665 14.5333 6.39998L4.73332 16.2L14.5333 26C14.8444 26.3111 15 26.6942 15 27.1493C15 27.6053 14.8333 28 14.5 28.3333C14.1667 28.6667 13.7778 28.8333 13.3333 28.8333C12.8889 28.8333 12.5 28.6667 12.1667 28.3333Z" fill="black"/>
</svg>
