<svg width="25" height="24" viewBox="0 0 25 24" fill="none" xmlns="http://www.w3.org/2000/svg">
<path d="M12.8423 4.5C7.84229 4.5 3.57229 7.61 1.84229 12C3.57229 16.39 7.84229 19.5 12.8423 19.5C17.8423 19.5 22.1123 16.39 23.8423 12C22.1123 7.61 17.8423 4.5 12.8423 4.5ZM12.8423 17C10.0823 17 7.84229 14.76 7.84229 12C7.84229 9.24 10.0823 7 12.8423 7C15.6023 7 17.8423 9.24 17.8423 12C17.8423 14.76 15.6023 17 12.8423 17ZM12.8423 9C11.1823 9 9.84229 10.34 9.84229 12C9.84229 13.66 11.1823 15 12.8423 15C14.5023 15 15.8423 13.66 15.8423 12C15.8423 10.34 14.5023 9 12.8423 9Z" fill="#222222"/>
</svg>
