<svg width="51" height="50" viewBox="0 0 51 50" fill="none" xmlns="http://www.w3.org/2000/svg">
<g clip-path="url(#clip0_1937_557)">
<path d="M25.8577 43C19.6077 43 14.0827 39.8 10.8577 35C10.9327 30 20.8577 27.25 25.8577 27.25C30.8577 27.25 40.7827 30 40.8577 35C39.2049 37.461 36.9723 39.4779 34.3566 40.8729C31.7408 42.268 28.8222 42.9985 25.8577 43ZM25.8577 7.5C27.8468 7.5 29.7544 8.29018 31.161 9.6967C32.5675 11.1032 33.3577 13.0109 33.3577 15C33.3577 16.9891 32.5675 18.8968 31.161 20.3033C29.7544 21.7098 27.8468 22.5 25.8577 22.5C23.8685 22.5 21.9609 21.7098 20.5544 20.3033C19.1478 18.8968 18.3577 16.9891 18.3577 15C18.3577 13.0109 19.1478 11.1032 20.5544 9.6967C21.9609 8.29018 23.8685 7.5 25.8577 7.5ZM25.8577 0C22.5746 0 19.3237 0.646644 16.2906 1.90301C13.2574 3.15938 10.5015 5.00087 8.18 7.32233C3.49159 12.0107 0.857666 18.3696 0.857666 25C0.857666 31.6304 3.49159 37.9893 8.18 42.6777C10.5015 44.9991 13.2574 46.8406 16.2906 48.097C19.3237 49.3534 22.5746 50 25.8577 50C32.4881 50 38.8469 47.3661 43.5353 42.6777C48.2237 37.9893 50.8577 31.6304 50.8577 25C50.8577 11.175 39.6077 0 25.8577 0Z" fill="white"/>
</g>
<defs>
<clipPath id="clip0_1937_557">
<rect width="50" height="50" fill="white" transform="translate(0.5)"/>
</clipPath>
</defs>
</svg>
